<svg xmlns="http://www.w3.org/2000/svg" xmlns:xlink="http://www.w3.org/1999/xlink" width="500" zoomAndPan="magnify" viewBox="0 0 375 374.999991" height="500" preserveAspectRatio="xMidYMid meet" version="1.0"><defs><clipPath id="bba73645d8"><path d="M 19 74.042969 L 356 74.042969 L 356 301 L 19 301 Z M 19 74.042969 " clip-rule="nonzero"/></clipPath><clipPath id="359ec50145"><path d="M 4.875 187 L 75 187 L 75 281 L 4.875 281 Z M 4.875 187 " clip-rule="nonzero"/></clipPath><clipPath id="e82b95398c"><path d="M 300 187 L 370.125 187 L 370.125 281 L 300 281 Z M 300 187 " clip-rule="nonzero"/></clipPath></defs><path fill="#38b6ff" d="M 161.269531 208.320312 L 171.773438 203.46875 C 172.769531 207.074219 174.605469 209.832031 177.269531 211.71875 C 179.910156 213.628906 183.308594 214.574219 187.445312 214.574219 C 191.375 214.574219 194.46875 213.476562 196.792969 211.308594 C 199.097656 209.132812 200.25 206.226562 200.25 202.582031 C 200.25 197.824219 196.300781 193.574219 188.390625 189.855469 C 187.273438 189.304688 186.425781 188.890625 185.839844 188.644531 C 176.90625 184.28125 170.957031 180.355469 167.992188 176.824219 C 165.027344 173.289062 163.535156 168.984375 163.535156 163.90625 C 163.535156 157.296875 165.785156 151.953125 170.257812 147.855469 C 173.527344 144.863281 177.546875 142.964844 182.308594 142.160156 L 182.308594 127.550781 L 192.695312 127.550781 L 192.695312 141.984375 C 196.597656 142.453125 200 143.515625 202.894531 145.171875 C 206.914062 147.476562 209.691406 150.78125 211.238281 155.085938 L 200.964844 160.410156 C 199.34375 157.863281 197.566406 155.992188 195.625 154.824219 C 193.679688 153.632812 191.449219 153.046875 188.9375 153.046875 C 185.40625 153.046875 182.574219 153.972656 180.496094 155.824219 C 178.398438 157.65625 177.359375 160.128906 177.359375 163.226562 C 177.359375 168.097656 181.949219 172.652344 191.109375 176.839844 C 191.808594 177.183594 192.355469 177.445312 192.773438 177.617188 C 200.777344 181.316406 206.273438 184.925781 209.257812 188.4375 C 212.242188 191.96875 213.734375 196.371094 213.734375 201.636719 C 213.734375 209.304688 211.316406 215.40625 206.480469 219.917969 C 202.847656 223.3125 198.253906 225.433594 192.695312 226.28125 L 192.695312 240.863281 L 182.308594 240.863281 L 182.308594 226.445312 C 177.449219 225.882812 173.320312 224.378906 169.917969 221.941406 C 165.519531 218.765625 162.628906 214.230469 161.269531 208.320312 Z M 161.269531 208.320312 " fill-opacity="1" fill-rule="evenodd"/><g clip-path="url(#bba73645d8)"><path fill="#1f83bd" d="M 19.601562 300.953125 L 127.484375 300.953125 L 125.652344 104.03125 L 249.351562 104.03125 L 247.515625 300.953125 L 355.398438 300.953125 L 264.074219 286.902344 L 276.722656 74.042969 L 98.28125 74.042969 L 110.925781 286.902344 Z M 19.601562 300.953125 " fill-opacity="1" fill-rule="evenodd"/></g><path fill="#38b6ff" d="M 137.675781 298.828125 L 149.085938 131.40625 L 225.914062 131.40625 L 237.324219 298.828125 L 236.699219 114.929688 L 138.300781 114.929688 Z M 137.675781 298.828125 " fill-opacity="1" fill-rule="evenodd"/><path fill="#1f83bd" d="M 104.441406 100.390625 L 53.378906 103.550781 L 104.488281 281.464844 L 79.375 123.929688 L 106.378906 123.402344 Z M 104.441406 100.390625 " fill-opacity="1" fill-rule="evenodd"/><path fill="#1f83bd" d="M 270.558594 100.390625 L 321.625 103.550781 L 270.515625 281.464844 L 295.628906 123.929688 L 268.625 123.402344 Z M 270.558594 100.390625 " fill-opacity="1" fill-rule="evenodd"/><path fill="#38b6ff" d="M 56.792969 137.832031 L 19.960938 142.722656 L 88.101562 282.164062 L 47.355469 157.121094 L 62.285156 155.714844 Z M 56.792969 137.832031 " fill-opacity="1" fill-rule="evenodd"/><path fill="#38b6ff" d="M 318.210938 137.832031 L 355.042969 142.722656 L 286.902344 282.164062 L 327.644531 157.121094 L 312.71875 155.714844 Z M 318.210938 137.832031 " fill-opacity="1" fill-rule="evenodd"/><g clip-path="url(#359ec50145)"><path fill="#38b6ff" d="M 45.359375 187.5 L 4.921875 190.707031 L 74.730469 280.625 L 32.925781 204.835938 L 52.617188 203.234375 Z M 45.359375 187.5 " fill-opacity="1" fill-rule="evenodd"/></g><g clip-path="url(#e82b95398c)"><path fill="#38b6ff" d="M 329.640625 187.5 L 370.082031 190.707031 L 300.273438 280.625 L 342.078125 204.835938 L 322.382812 203.234375 Z M 329.640625 187.5 " fill-opacity="1" fill-rule="evenodd"/></g></svg>